<svg width="233" height="286" viewBox="0 0 233 286" fill="none" xmlns="http://www.w3.org/2000/svg">
<path d="M7.25127 242.015C2.51989 235.052 0.124781 227.456 0.00532306 219.208C-0.205362 204.662 5.84313 193.152 17.2561 184.308C29.135 175.104 40.4671 165.236 51.986 155.596C54.4037 153.572 56.8456 151.578 59.2856 149.562C58.5926 148.051 57.4 147.252 56.463 146.261C47.0494 136.297 42.0557 124.367 40.5878 110.85C39.5421 101.22 39.9777 91.6292 41.3551 82.0642C41.4091 81.6895 41.4993 81.3192 41.5866 80.9501C42.0235 79.1021 42.895 77.5991 44.9457 77.2817C46.8998 76.9793 47.9658 78.2786 48.8733 79.7259C51.7072 84.2454 54.8334 88.5495 58.3302 92.5795C59.7759 94.2456 61.226 95.9131 62.9889 97.3599C64.2452 96.306 64.2478 94.8824 64.5013 93.6527C66.1224 85.7883 68.0913 77.9858 68.9983 69.9883C69.5973 64.7065 70.0967 59.4134 70.3013 54.0976C70.4064 51.3674 71.725 49.5188 73.8534 49.1071C75.855 48.72 77.1785 49.5097 78.2832 51.8135C80.8314 57.1275 83.0774 62.5862 85.8753 67.7799C86.8802 69.6454 87.8143 71.5751 89.3726 73.3247C91.0865 71.1123 91.951 68.7103 93.0173 66.4553C98.9881 53.8278 104.118 40.8862 106.913 27.1364C108.403 19.8054 109.285 12.3913 109.496 4.90745C109.574 2.15266 110.417 0.718179 112.414 0.149733C114.242 -0.3707 115.856 0.466246 117.226 2.64947C129.376 22.0085 137.758 42.883 142.421 65.2556C142.87 67.4143 143.368 69.563 143.933 72.1239C145.538 70.0444 146.657 68.0946 147.65 66.1021C149.966 61.4519 152.179 56.7499 154.401 52.0535C155.464 49.8075 156.889 48.8036 158.75 49.1152C160.765 49.4528 162.048 51.1435 162.212 53.5015C163.031 65.2593 164.513 76.9229 167.277 88.3992C167.999 91.3991 168.738 94.3951 169.573 97.8196C171.919 95.8408 173.676 93.7916 175.408 91.7502C178.281 88.3625 180.825 84.725 183.128 80.9221C183.554 80.2179 183.97 79.4967 184.482 78.8564C186.388 76.4731 189.225 76.7598 190.665 79.4351C191.313 80.638 191.517 81.947 191.662 83.2698C193.194 97.3317 193.594 111.328 189.287 125.062C186.532 133.844 181.811 141.371 175.058 147.634C173.271 149.292 173.247 149.424 175.099 150.965C187.815 161.547 200.283 172.441 213.52 182.377C222.706 189.273 229.486 197.678 231.99 209.124C237.046 232.234 222.637 255.067 199.553 259.737C184.617 262.759 171.588 258.625 161.025 247.391C160.473 246.804 160.044 246.058 158.914 245.757C157.535 259.401 151.842 270.639 140.331 278.443C131.705 284.292 121.976 285.844 111.809 285.089C93.9734 283.765 75.7395 269.296 73.8575 245.539C62.1814 259.013 47.681 263.268 30.8123 259.117C20.8088 256.655 13.0317 250.729 7.25127 242.015ZM133.908 151.653C135.185 150.952 136.524 150.344 137.73 149.536C151.222 140.501 157.456 127.515 158.145 111.607C158.47 104.114 156.824 96.8743 154.785 89.7271C154.119 87.3925 153.8 84.9311 152.512 82.5193C152.089 83.3531 151.776 83.9612 151.471 84.573C149.344 88.833 147.057 92.9891 144.015 96.6904C141.182 100.137 138.121 103.335 134.307 105.706C132.831 106.624 131.129 106.933 129.66 105.83C128.161 104.706 128.051 103.064 128.711 101.355C132.253 92.1824 132.608 82.6605 131.368 73.0841C129.619 59.5809 125.138 46.8747 119.345 34.6077C119.13 34.1526 119.062 33.5042 118.296 33.3497C118.16 33.8292 118.025 34.2435 117.926 34.6664C115.637 44.4438 112.287 53.8603 108.289 63.0578C106.244 67.7632 103.956 72.3657 102.284 77.2291C99.0876 86.5223 98.9658 95.6141 104.043 104.373C104.227 104.69 104.342 105.052 104.454 105.405C104.457 105.413 104.459 105.421 104.462 105.428C104.848 106.64 104.542 107.7 103.634 108.549C102.663 109.455 101.51 109.643 100.284 109.127C99.1597 108.655 98.2473 107.858 97.3074 107.102C90.0771 101.286 84.9931 93.886 81.2781 85.465C80.9705 84.7677 80.8279 83.9117 79.9217 83.4702C79.6906 83.9772 79.4502 84.3564 79.3397 84.7702C78.2791 88.7443 77.15 92.6965 76.2828 96.7256C74.2927 105.971 74.041 115.127 76.5963 124.346C83.626 149.705 110.294 162.574 133.908 151.653ZM87.9365 229.321C85.7593 234.135 84.6756 239.163 84.9763 244.462C85.0643 246.012 85.2448 247.475 86.7746 248.402C87.7585 248.998 87.9959 249.799 87.0295 250.714C86.3331 251.374 86.4508 252.183 86.7491 253.01C89.8432 261.589 95.7733 267.466 103.978 271.224C104.963 271.675 105.817 271.209 106.504 271.2C107.294 271.401 106.544 272.375 107.458 272.339C108.585 270.854 107.408 269.617 106.85 268.378C107.565 267.802 108.181 268.035 108.778 268.217C110.911 268.866 113.11 269.179 115.316 269.345C116.705 269.45 117.474 269.994 117.972 271.313C118.824 273.57 120.018 274.092 122.43 273.707C125.204 273.264 127.888 272.542 130.378 271.239C136.128 268.231 140.896 264.214 143.668 258.161C144.289 256.806 144.159 255.528 142.902 254.845C141.701 254.192 140.598 254.937 139.773 255.952C139.46 256.338 139.404 256.989 138.794 257.119C139.343 253.495 140.976 250.766 144.467 249.441C144.757 249.331 144.991 249.086 145.265 248.928C146.944 247.958 147.767 246.497 147.833 244.571C148.097 236.921 146.432 229.78 141.632 223.703C127.213 205.452 97.8931 208.479 87.9365 229.321ZM17.6053 236.826C21.8231 242.537 27.3881 246.19 34.3524 247.714C35.5914 246.048 35.5543 245.844 33.7668 245.013C32.6765 244.506 31.5412 244.083 30.4909 243.505C28.6577 242.496 26.8377 241.435 25.9735 239.198C31.9368 244.067 38.9968 244.852 46.6633 244.715C45.6073 245.731 44.0096 245.604 44.4431 246.916C44.8249 248.071 46.0407 248.457 47.2526 248.469C47.6914 248.473 48.1342 248.385 48.5701 248.31C54.704 247.25 59.5993 243.972 63.7727 239.562C65.6951 237.531 66.9687 235.008 67.9562 232.377C68.2248 231.661 68.4973 230.921 67.657 230.335C66.8225 229.753 66.0387 229.982 65.4109 230.583C64.5918 231.367 63.8931 232.276 63.1331 233.122C62.784 233.511 62.6818 234.222 61.4327 234.024C64.7032 228.518 65.1008 222.544 64.672 216.405C66.2758 217.925 66.4026 219.994 67.4524 221.756C68.3306 221.168 69.0854 220.648 68.5671 219.576C68.1237 218.659 68.5315 218.069 69.2019 217.647C70.3734 216.911 70.5356 215.864 70.27 214.675C70.0084 213.504 69.7772 212.306 69.3304 211.201C64.3996 199.013 55.3977 191.928 42.4217 189.894C27.9555 187.626 13.989 198.053 11.9032 212.529C11.5703 214.839 11.7635 216.615 13.9393 217.82C14.2361 217.984 14.6006 218.254 14.4149 218.734C14.4066 218.736 14.3984 218.738 14.3901 218.74C11.6965 219.401 11.6395 219.415 11.886 222.485C12.3083 227.743 14.3633 232.385 17.6053 236.826ZM193.479 245.772C193.208 246.178 192.73 246.498 192.954 247.164C194.129 247.938 195.462 247.801 196.768 247.571C200.439 246.923 203.896 245.913 207.214 243.943C211.679 241.294 215.113 237.901 217.535 233.391C217.92 232.674 218.285 231.925 217.977 231.042C217.313 229.137 217.768 227.62 219.709 226.674C219.064 225.765 218.255 224.723 217.484 225.952C216.088 228.177 214.085 230.012 213.282 232.645C212.925 233.815 212.271 235.021 210.827 235.417C210.514 234.614 210.98 234.192 211.292 233.748C212.883 231.476 214.295 228.894 214.344 226.26C214.43 221.59 216.41 218.628 220.493 216.747C221.258 216.394 221.738 215.681 221.602 214.718C220.32 205.624 216.174 198.303 208.204 193.458C200.318 188.664 191.979 188.471 183.536 191.659C173.514 195.444 166.181 201.991 163.237 212.656C162.709 214.569 161.572 216.741 164.197 218.143C163.616 219.027 162.429 219.328 162.61 220.379C163.1 223.219 163.045 226.097 164.033 228.925C165.191 232.237 167.17 234.919 169.129 237.691C170.071 239.024 171.282 239.213 172.742 239.006C172.914 236.518 170.33 235.224 170.41 232.716C176.359 241.606 184.659 245.456 195.486 244.606C194.692 245.243 194 245.061 193.479 245.772ZM182.583 170.766C174.582 163.75 166.574 156.741 158.59 149.706C157.819 149.026 157.251 148.955 156.516 149.731C154.601 151.757 152.613 153.713 150.445 155.473C149.7 156.078 149.68 156.653 150.285 157.4C151.041 158.332 151.79 159.292 152.377 160.333C153.109 161.629 152.471 162.702 151.393 163.429C150.345 164.136 149.233 164.142 148.351 163.042C147.757 162.301 147.139 161.571 146.628 160.773C145.749 159.403 144.954 159.376 143.572 160.33C142.065 161.371 142.577 162.144 143.28 163.206C143.291 163.223 143.302 163.24 143.313 163.256C145.305 166.266 147.47 169.163 149.217 172.334C149.734 173.271 149.781 174.142 149.022 174.949C148.386 175.626 147.624 176.103 146.659 175.798C145.698 175.493 145.142 174.683 144.623 173.883C142.592 170.746 140.582 167.595 138.544 164.463C138.259 164.025 138.007 163.305 137.255 163.804C136.675 164.188 136.959 164.712 137.207 165.151C140.26 170.555 143.325 175.953 146.385 181.353C146.69 181.892 147.077 182.204 147.763 182.111C148.459 182.017 148.71 181.624 148.839 180.995C149.063 179.902 149.652 179.059 150.714 178.449C152.23 179.959 153.188 181.748 154.324 183.402C154.757 184.033 155.118 184.8 156.1 184.294C157.499 183.573 158.368 184.346 159.17 185.347C160.477 186.978 161.774 188.617 163.107 190.227C163.461 190.654 163.902 191.149 164.53 190.562C165.057 190.069 164.92 189.546 164.551 189.034C164.255 188.623 163.948 188.219 163.645 187.813C160.047 182.991 156.432 178.181 152.861 173.338C151.908 172.046 151.586 170.617 153.053 169.463C154.58 168.262 155.821 169.136 156.815 170.329C158.516 172.373 160.132 174.488 161.784 176.573C164.447 179.933 167.11 183.293 169.824 186.719C176.491 182.135 183.794 179.897 192.08 179.027C188.757 176.139 185.77 173.544 182.583 170.766ZM66.9478 155.851C58.5249 163.559 49.7085 170.836 41.295 179.019C46.9449 179.602 52.1059 180.755 56.9355 183.106C57.95 183.6 58.4084 182.995 58.9213 182.319C58.9296 182.308 58.9378 182.297 58.9461 182.286C62.9268 177.038 67.1966 172.012 70.9542 166.593C71.2051 166.231 71.4862 165.875 71.8126 165.583C73.1181 164.414 74.6582 164.411 75.9058 165.591C77.1462 166.764 77.0342 168.011 76.0638 169.312C73.2241 173.118 70.4108 176.945 67.5697 180.75C66.1476 182.655 64.5846 184.461 63.3504 186.579C64.9702 187.861 66.44 189.024 68.017 190.272C72.5084 185.008 75.0807 178.715 79.2878 173.239C79.3021 173.261 79.3163 173.284 79.3306 173.307C81.3102 176.451 83.1629 179.394 85.4283 182.078C85.7494 181.807 85.938 181.716 86.0241 181.566C89.1431 176.128 92.2554 170.686 95.3583 165.239C95.6478 164.731 95.8912 164.174 95.2009 163.756C94.5025 163.333 94.1731 163.84 93.869 164.308C93.8609 164.32 93.8528 164.333 93.8447 164.345C92.2909 166.731 90.759 169.131 89.204 171.516C88.3288 172.859 87.1207 173.414 85.6328 172.642C84.2293 171.914 84.0369 170.645 85.0899 168.874C86.2213 166.97 87.5141 165.163 88.6822 163.28C89.2399 162.381 90.2713 161.515 88.7784 160.403C87.4114 159.385 86.6547 159.957 85.8492 161.064C85.2543 161.881 84.5683 162.633 83.9044 163.399C82.9586 164.489 81.8563 164.929 80.5781 163.981C79.3755 163.089 79.1615 161.872 79.8829 160.615C80.4776 159.579 81.2428 158.636 81.978 157.687C82.6075 156.874 82.5353 156.219 81.7385 155.573C79.7605 153.969 78.1135 152.033 76.447 150.128C75.5386 149.09 74.8005 149.035 73.7683 149.967C71.6074 151.919 69.3649 153.78 66.9478 155.851ZM118.569 200.135C118.578 198.806 118.574 197.476 118.598 196.147C118.634 194.178 119.558 192.997 121.086 192.934C122.662 192.869 123.875 194.086 124.095 195.975C124.234 197.17 124.34 198.369 124.478 199.563C124.722 201.677 125.053 201.917 127.483 201.765C127.917 201.052 127.65 200.323 127.531 199.579C126.865 195.394 126.18 191.212 125.599 187.015C125.403 185.603 125.872 184.254 127.387 183.833C128.881 183.419 129.932 184.308 130.61 185.585C130.841 186.02 130.923 186.543 131.03 187.035C132.098 191.979 133.332 196.896 134.157 201.88C134.681 205.048 137.023 205.628 139.247 206.65C139.635 206.062 139.413 205.646 139.284 205.234C135.45 192.967 131.579 180.711 127.816 168.421C127.314 166.779 126.537 166.523 125.068 166.889C123.358 167.316 123.405 168.53 123.523 169.856C123.874 173.777 123.743 177.709 123.701 181.634C123.679 183.63 122.492 184.828 120.896 184.839C119.354 184.85 118.325 183.732 118.18 181.794C118.062 180.216 117.994 178.634 117.95 177.052C117.877 174.392 117.86 171.73 117.778 169.069C117.749 168.127 117.306 167.546 116.232 167.568C115.173 167.59 115.027 168.239 114.968 169.076C114.884 170.275 114.824 171.486 114.599 172.663C114.281 174.317 113.083 174.93 111.51 174.808C110.04 174.695 109.441 173.756 109.452 172.349C109.457 171.652 109.441 170.955 109.44 170.258C109.435 167.168 108.633 166.514 105.234 166.968C102.927 174.734 100.592 182.553 98.2831 190.379C96.8684 195.174 95.4874 199.98 94.1074 204.785C93.9597 205.3 93.5476 205.896 94.164 206.352C94.6584 206.718 95.1203 206.3 95.5824 206.128C97.18 205.534 98.2729 204.574 98.3657 202.712C98.4189 201.645 98.6273 200.579 98.8382 199.527C99.6461 195.498 100.421 191.461 101.337 187.456C101.772 185.552 103.11 184.717 104.632 185.072C106.185 185.433 106.787 186.618 106.424 188.666C106.049 190.783 105.544 192.884 105.289 195.015C105 197.422 104.156 199.772 104.315 202.259C107.711 202.006 107.823 201.934 108.176 198.997C108.402 197.113 108.543 195.218 108.718 193.327C108.986 190.43 109.206 187.527 109.535 184.636C109.72 183.003 110.456 181.693 112.32 181.551C113.932 181.429 115.119 182.727 115.013 184.718C114.763 189.395 114.389 194.066 114.062 198.74C114.007 199.525 113.571 200.568 114.777 200.745C115.985 200.921 117.284 201.246 118.569 200.135ZM58.1281 110.328C56.3955 108.721 54.6628 107.113 52.8075 105.392C51.2318 115.741 61.099 136.218 68.979 139.201C67.4606 135.868 65.8664 132.639 65.0083 129.119C64.1551 125.619 63.1276 122.123 62.957 118.53C62.7865 114.941 61.3752 112.317 58.1281 110.328ZM167.508 130.01C166.611 133.081 165.4 136.038 163.903 139.181C172.699 134.754 181.954 115.369 179.943 105.837C177.267 108.578 174.449 111.008 171.557 113.35C170.641 114.091 170.279 114.96 170.153 116.107C169.647 120.706 168.915 125.268 167.508 130.01ZM148.502 193.953C147.985 193.359 147.597 193.581 147.438 194.208C147.305 194.735 147.506 195.349 148.11 195.343C148.891 195.335 148.598 194.647 148.502 193.953Z" fill="#001F3F"/>
<path d="M167.508 130.01C166.611 133.081 165.4 136.038 163.903 139.181C172.699 134.754 181.954 115.369 179.943 105.837C177.267 108.578 174.449 111.008 171.557 113.35C170.641 114.091 170.279 114.96 170.153 116.107C169.647 120.706 168.915 125.268 167.508 130.01Z" fill="#FF5C00"/>
<path d="M58.1281 110.328L52.8075 105.392C51.2318 115.741 61.099 136.218 68.979 139.201C67.4606 135.868 65.8664 132.639 65.0083 129.119C64.1551 125.619 63.1276 122.123 62.957 118.53C62.7865 114.941 61.3752 112.317 58.1281 110.328Z" fill="#FF5C00"/>
<path d="M133.908 151.653C135.185 150.952 136.524 150.344 137.73 149.536C151.222 140.501 157.456 127.515 158.145 111.607C158.47 104.114 156.824 96.8743 154.785 89.7271C154.119 87.3925 153.8 84.9311 152.512 82.5193C152.089 83.3531 151.776 83.9612 151.471 84.573C149.344 88.833 147.057 92.9891 144.015 96.6904C141.182 100.137 138.121 103.335 134.307 105.706C132.831 106.624 131.129 106.933 129.66 105.83C128.161 104.706 128.051 103.064 128.711 101.355C132.253 92.1824 132.608 82.6605 131.368 73.0841C129.619 59.5809 125.138 46.8747 119.345 34.6077C119.13 34.1526 119.062 33.5042 118.296 33.3497C118.16 33.8292 118.025 34.2435 117.926 34.6664C115.637 44.4438 112.287 53.8603 108.289 63.0578C106.244 67.7632 103.956 72.3657 102.284 77.2291C99.0876 86.5223 98.9658 95.6141 104.043 104.373C104.227 104.69 104.342 105.052 104.454 105.405L104.462 105.428C104.848 106.64 104.542 107.7 103.634 108.549C102.663 109.455 101.51 109.643 100.284 109.127C99.1597 108.655 98.2473 107.858 97.3074 107.102C90.0771 101.286 84.9931 93.886 81.2781 85.465C80.9705 84.7677 80.8279 83.9117 79.9217 83.4702C79.6906 83.9772 79.4502 84.3564 79.3397 84.7702C78.2791 88.7443 77.15 92.6965 76.2828 96.7256C74.2927 105.971 74.041 115.127 76.5963 124.346C83.626 149.705 110.294 162.574 133.908 151.653Z" fill="#F20245"/>
<path d="M66.9478 155.851C58.5249 163.559 49.7085 170.836 41.295 179.019C46.9449 179.602 52.1059 180.755 56.9355 183.106C57.95 183.6 58.4084 182.995 58.9213 182.319L58.9461 182.286C62.9268 177.038 67.1966 172.012 70.9542 166.593C71.2051 166.231 71.4862 165.875 71.8126 165.583C73.1181 164.414 74.6582 164.411 75.9058 165.591C77.1462 166.764 77.0342 168.011 76.0638 169.312C73.2241 173.118 70.4108 176.945 67.5697 180.75C66.1476 182.655 64.5846 184.461 63.3504 186.579L68.017 190.272C72.5084 185.008 75.0807 178.715 79.2878 173.239L79.3306 173.307C81.3102 176.451 83.1629 179.394 85.4283 182.078C85.7494 181.807 85.938 181.716 86.0241 181.566C89.1431 176.128 92.2554 170.686 95.3583 165.239C95.6478 164.731 95.8912 164.174 95.2009 163.756C94.5025 163.333 94.1731 163.84 93.869 164.308L93.8447 164.345C92.2909 166.731 90.759 169.131 89.204 171.516C88.3288 172.859 87.1207 173.414 85.6328 172.642C84.2293 171.914 84.0369 170.645 85.0899 168.874C86.2213 166.97 87.5141 165.163 88.6822 163.28C89.2399 162.381 90.2713 161.515 88.7784 160.403C87.4114 159.385 86.6547 159.957 85.8492 161.064C85.2543 161.881 84.5683 162.633 83.9044 163.399C82.9586 164.489 81.8563 164.929 80.5781 163.981C79.3755 163.089 79.1615 161.872 79.8829 160.615C80.4776 159.579 81.2428 158.636 81.978 157.687C82.6075 156.874 82.5353 156.219 81.7385 155.573C79.7605 153.969 78.1135 152.033 76.447 150.128C75.5386 149.09 74.8005 149.035 73.7683 149.967C71.6074 151.919 69.3649 153.78 66.9478 155.851Z" fill="#A21D00"/>
<path d="M17.6053 236.826C21.8231 242.537 27.3881 246.19 34.3524 247.714C35.5914 246.048 35.5543 245.844 33.7668 245.013C32.6765 244.506 31.5412 244.083 30.4909 243.505C28.6577 242.496 26.8377 241.435 25.9735 239.198C31.9368 244.067 38.9968 244.852 46.6633 244.715C45.6073 245.731 44.0096 245.604 44.4431 246.916C44.8249 248.071 46.0407 248.457 47.2526 248.469C47.6914 248.473 48.1342 248.385 48.5701 248.31C54.704 247.25 59.5993 243.972 63.7727 239.562C65.6951 237.531 66.9687 235.008 67.9562 232.377C68.2248 231.661 68.4973 230.921 67.657 230.335C66.8225 229.753 66.0387 229.982 65.4109 230.583C64.5918 231.367 63.8931 232.276 63.1331 233.122C62.784 233.511 62.6818 234.222 61.4327 234.024C64.7032 228.518 65.1008 222.544 64.672 216.405C66.2758 217.925 66.4026 219.994 67.4524 221.756C68.3306 221.168 69.0854 220.648 68.5671 219.576C68.1237 218.659 68.5315 218.069 69.2019 217.647C70.3734 216.911 70.5356 215.864 70.27 214.675C70.0084 213.504 69.7772 212.306 69.3304 211.201C64.3996 199.013 55.3977 191.928 42.4217 189.894C27.9555 187.626 13.989 198.053 11.9032 212.529C11.5703 214.839 11.7635 216.615 13.9393 217.82C14.2361 217.984 14.6006 218.254 14.4149 218.734L14.3901 218.74C11.6965 219.401 11.6395 219.415 11.886 222.485C12.3083 227.743 14.3633 232.385 17.6053 236.826Z" fill="#A11D00"/>
<path d="M118.569 200.135C118.578 198.806 118.574 197.476 118.598 196.147C118.634 194.178 119.558 192.997 121.086 192.934C122.662 192.869 123.875 194.086 124.095 195.975C124.234 197.17 124.34 198.369 124.478 199.563C124.722 201.677 125.053 201.917 127.483 201.765C127.917 201.052 127.65 200.323 127.531 199.579C126.865 195.394 126.18 191.212 125.599 187.015C125.403 185.603 125.872 184.254 127.387 183.833C128.881 183.419 129.932 184.308 130.61 185.585C130.841 186.02 130.923 186.543 131.03 187.035C132.098 191.979 133.332 196.896 134.157 201.88C134.681 205.048 137.023 205.628 139.247 206.65C139.635 206.062 139.413 205.646 139.284 205.234C135.45 192.967 131.579 180.711 127.816 168.421C127.314 166.779 126.537 166.523 125.068 166.889C123.358 167.316 123.405 168.53 123.523 169.856C123.874 173.777 123.743 177.709 123.701 181.634C123.679 183.63 122.492 184.828 120.896 184.839C119.354 184.85 118.325 183.732 118.18 181.794C118.062 180.216 117.994 178.634 117.95 177.052C117.877 174.392 117.86 171.73 117.778 169.069C117.749 168.127 117.306 167.546 116.232 167.568C115.173 167.59 115.027 168.239 114.968 169.076C114.884 170.275 114.824 171.486 114.599 172.663C114.281 174.317 113.083 174.93 111.51 174.808C110.04 174.695 109.441 173.756 109.452 172.349C109.457 171.652 109.441 170.955 109.44 170.258C109.435 167.168 108.633 166.514 105.234 166.968C102.927 174.734 100.592 182.553 98.2831 190.379C96.8684 195.174 95.4874 199.98 94.1074 204.785C93.9597 205.3 93.5476 205.896 94.164 206.352C94.6584 206.718 95.1203 206.3 95.5824 206.128C97.18 205.534 98.2729 204.574 98.3657 202.712C98.4189 201.645 98.6273 200.579 98.8382 199.527C99.6461 195.498 100.421 191.461 101.337 187.456C101.772 185.552 103.11 184.717 104.632 185.072C106.185 185.433 106.787 186.618 106.424 188.666C106.049 190.783 105.544 192.884 105.289 195.015C105 197.422 104.156 199.772 104.315 202.259C107.711 202.006 107.823 201.934 108.176 198.997C108.402 197.113 108.543 195.218 108.718 193.327C108.986 190.43 109.206 187.527 109.535 184.636C109.72 183.003 110.456 181.693 112.32 181.551C113.932 181.429 115.119 182.727 115.013 184.718C114.763 189.395 114.389 194.066 114.062 198.74C114.007 199.525 113.571 200.568 114.777 200.745C115.985 200.921 117.284 201.246 118.569 200.135Z" fill="#A11D00"/>
<path d="M87.9365 229.321C85.7593 234.135 84.6756 239.163 84.9763 244.462C85.0643 246.012 85.2448 247.475 86.7746 248.402C87.7585 248.998 87.9959 249.799 87.0295 250.714C86.3331 251.374 86.4508 252.183 86.7491 253.01C89.8432 261.589 95.7733 267.466 103.978 271.224C104.963 271.675 105.817 271.209 106.504 271.2C107.294 271.401 106.544 272.375 107.458 272.339C108.585 270.854 107.408 269.617 106.85 268.378C107.565 267.802 108.181 268.035 108.778 268.217C110.911 268.866 113.11 269.179 115.316 269.345C116.705 269.45 117.474 269.994 117.972 271.313C118.824 273.57 120.018 274.092 122.43 273.707C125.204 273.264 127.888 272.542 130.378 271.239C136.128 268.231 140.896 264.214 143.668 258.161C144.289 256.806 144.159 255.528 142.902 254.845C141.701 254.192 140.598 254.937 139.773 255.952C139.46 256.338 139.404 256.989 138.794 257.119C139.343 253.495 140.976 250.766 144.467 249.441C144.757 249.331 144.991 249.086 145.265 248.928C146.944 247.958 147.767 246.497 147.833 244.571C148.097 236.921 146.432 229.78 141.632 223.703C127.213 205.452 97.8931 208.479 87.9365 229.321Z" fill="#A11D00"/>
<path d="M182.583 170.766C174.582 163.75 166.574 156.741 158.59 149.706C157.819 149.026 157.251 148.955 156.516 149.731C154.601 151.757 152.613 153.713 150.445 155.473C149.7 156.078 149.68 156.653 150.285 157.4C151.041 158.332 151.79 159.292 152.377 160.333C153.109 161.629 152.471 162.702 151.393 163.429C150.345 164.136 149.233 164.142 148.351 163.042C147.757 162.301 147.139 161.571 146.628 160.773C145.749 159.403 144.954 159.376 143.572 160.33C142.065 161.371 142.577 162.144 143.28 163.206L143.313 163.256C145.305 166.266 147.47 169.163 149.217 172.334C149.734 173.271 149.781 174.142 149.022 174.949C148.386 175.626 147.624 176.103 146.659 175.798C145.698 175.493 145.142 174.683 144.623 173.883C142.592 170.746 140.582 167.595 138.544 164.463C138.259 164.025 138.007 163.305 137.255 163.804C136.675 164.188 136.959 164.712 137.207 165.151C140.26 170.555 143.325 175.953 146.385 181.353C146.69 181.892 147.077 182.204 147.763 182.111C148.459 182.017 148.71 181.624 148.839 180.995C149.063 179.902 149.652 179.059 150.714 178.449C152.23 179.959 153.188 181.748 154.324 183.402C154.757 184.033 155.118 184.8 156.1 184.294C157.499 183.573 158.368 184.346 159.17 185.347C160.477 186.978 161.774 188.617 163.107 190.227C163.461 190.654 163.902 191.149 164.53 190.562C165.057 190.069 164.92 189.546 164.551 189.034C164.255 188.623 163.948 188.219 163.645 187.813C160.047 182.991 156.432 178.181 152.861 173.338C151.908 172.046 151.586 170.617 153.053 169.463C154.58 168.262 155.821 169.136 156.815 170.329C158.516 172.373 160.132 174.488 161.784 176.573L169.824 186.719C176.491 182.135 183.794 179.897 192.08 179.027C188.757 176.139 185.77 173.544 182.583 170.766Z" fill="#A11D00"/>
<path d="M193.479 245.772C193.208 246.178 192.73 246.498 192.954 247.164C194.129 247.938 195.462 247.801 196.768 247.571C200.439 246.923 203.896 245.913 207.214 243.943C211.679 241.294 215.113 237.901 217.535 233.391C217.92 232.674 218.285 231.925 217.977 231.042C217.313 229.137 217.768 227.62 219.709 226.674C219.064 225.765 218.255 224.723 217.484 225.952C216.088 228.177 214.085 230.012 213.282 232.645C212.925 233.815 212.271 235.021 210.827 235.417C210.514 234.614 210.98 234.192 211.292 233.748C212.883 231.476 214.295 228.894 214.344 226.26C214.43 221.59 216.41 218.628 220.493 216.747C221.258 216.394 221.738 215.681 221.602 214.718C220.32 205.624 216.174 198.303 208.204 193.458C200.318 188.664 191.979 188.471 183.536 191.659C173.514 195.444 166.181 201.991 163.237 212.656C162.709 214.569 161.572 216.741 164.197 218.143C163.616 219.027 162.429 219.328 162.61 220.379C163.1 223.219 163.045 226.097 164.033 228.925C165.191 232.237 167.17 234.919 169.129 237.691C170.071 239.024 171.282 239.213 172.742 239.006C172.914 236.518 170.33 235.224 170.41 232.716C176.359 241.606 184.659 245.456 195.486 244.606C194.692 245.243 194 245.061 193.479 245.772Z" fill="#A11D00"/>
<path d="M118.842 97.0641C119.6 100.152 120.231 103.118 121.006 106.047C122.396 111.298 124.768 116.114 127.744 120.639C130.084 124.198 132.166 127.866 133.204 132.055C135.712 142.171 128.918 152.465 119.017 153.497C105.613 154.895 96.0154 142.897 100.224 130.035C101.439 126.323 103.396 122.999 105.493 119.755C109.707 113.238 112.733 106.284 113.675 98.5104C113.834 97.1953 114.373 96.0068 115.749 95.5828C117.073 95.1748 118.089 95.7556 118.842 97.0641Z" fill="#FF5C00"/>
<path d="M122.657 228.894C134.485 232.895 138.673 248.039 130.835 258.003C124.908 265.537 113.372 267.209 105.94 261.611C97.4809 255.24 95.6655 243.989 101.716 235.434C106.299 228.954 114.14 226.47 122.657 228.894ZM111.46 255.609C113.067 256.67 114.861 256.884 116.737 256.857C121.251 256.793 124.284 254.497 126.036 250.508C127.777 246.546 127.218 242.764 124.314 239.537C121.393 236.29 117.683 235.12 113.45 236.381C109.448 237.573 106.98 240.348 106.368 244.496C105.689 249.105 107.257 252.844 111.46 255.609Z" fill="#001F3F"/>
<path d="M117.929 216.435C129.53 216.701 140.608 225.693 143.547 237.038C144.123 239.264 144.443 241.501 144.358 243.799C144.299 245.387 143.639 246.557 141.952 246.669C140.25 246.781 139.39 245.649 139.191 244.119C138.822 241.273 138.185 238.528 136.979 235.905C132.445 226.039 121.725 220.713 111.168 223.124C102.745 225.048 95.2469 233.303 94.117 241.883C94.0182 242.633 93.8867 243.384 93.6965 244.115C93.3189 245.568 92.4539 246.532 90.8458 246.288C89.3016 246.054 88.5724 244.937 88.5683 243.454C88.5599 240.384 89.1733 237.4 90.2554 234.544C94.5548 223.196 104.861 216.432 117.929 216.435Z" fill="#001F3F"/>
<path d="M94.6218 257.153C94.7079 257.486 94.7444 257.717 94.8316 258.271C93.2991 256.951 92.4024 255.671 92.2962 253.509C93.5708 254.659 93.7662 256.059 94.6218 257.153Z" fill="#001F3F"/>
<path d="M47.2329 204.245C55.3048 207.201 59.664 213.01 59.9619 221.303C60.2283 228.717 57.1178 234.875 50.2837 238.326C37.538 244.761 23.6708 235.496 23.4158 222.58C23.153 209.272 35.7282 200.834 47.2329 204.245ZM44.013 211.795C42.9426 211.744 41.8669 211.599 40.8026 211.659C36.24 211.914 32.3529 215.486 31.4223 220.208C30.5511 224.628 33.1579 229.504 37.5071 231.591C41.5758 233.543 46.6514 232.383 49.6185 229.028C53.7093 224.403 53.5364 214.709 44.013 211.795Z" fill="#001F3F"/>
<path d="M25.8138 197.8C27.9261 196.478 30.0055 195.403 32.2861 194.776C34.2272 194.242 35.6582 194.87 36.1952 196.443C36.7311 198.013 35.9625 199.327 33.9231 199.926C31.1984 200.727 28.8174 202.129 26.5536 203.777C25.2327 204.738 23.944 204.841 22.8588 203.513C21.7573 202.165 22.2303 200.894 23.3685 199.82C24.1029 199.127 24.9188 198.521 25.8138 197.8Z" fill="#001F3F"/>
<path d="M15.5921 214.608C14.6937 213.594 14.6603 212.596 15.0383 211.485C15.5114 210.095 16.1296 208.784 16.925 207.557C17.5369 206.613 18.394 206.059 19.4993 206.584C20.6789 207.144 21.4609 208.117 21.0267 209.494C20.5717 210.938 20.0168 212.373 19.316 213.712C18.5227 215.227 17.2806 215.751 15.5921 214.608Z" fill="#001F3F"/>
<path d="M50.0042 195.076C51.8878 195.568 53.4433 196.298 54.553 197.817C55.2012 198.704 55.2928 199.563 54.6338 200.41C53.9203 201.327 53.0161 201.477 51.9546 200.917C50.9001 200.36 49.8148 199.854 48.7131 199.398C47.4367 198.869 46.7466 198.039 47.1093 196.616C47.4776 195.172 48.4898 194.777 50.0042 195.076Z" fill="#001F3F"/>
<path d="M62.0248 209.457C59.6584 210.003 57.3159 207.789 57.7863 205.608C58.0495 204.389 58.8565 203.752 60.1231 203.968C62.4523 204.365 63.5859 207.439 62.0248 209.457Z" fill="#001F3F"/>
<path d="M18.9282 231.87C17.2887 228.265 16.9235 226.043 17.6748 224.074C18.2695 225.928 18.7509 227.747 19.4395 229.485C20.1313 231.231 21.0296 232.895 21.862 234.646C20.2956 234.619 19.9059 234.246 18.9282 231.87Z" fill="#001F3F"/>
<path d="M177.359 233.989C172.145 227.693 171.158 220.846 174.763 213.709C178.283 206.741 184.306 203.427 192.101 203.542C201.2 203.677 209.021 211.841 209.449 220.95C209.92 230.976 202.639 238.692 195.067 240.031C188.183 241.249 182.123 239.622 177.359 233.989ZM185.556 213.173C181.566 215.725 180.114 219.511 180.913 223.977C181.664 228.179 184.428 230.995 188.532 232.135C192.596 233.264 196.155 232.132 198.979 228.915C202.14 225.314 202.391 219.668 199.551 215.9C196.259 211.532 191.048 210.443 185.556 213.173Z" fill="#001F3F"/>
<path d="M216.762 215.363C214.519 216.318 213.465 216.053 212.71 214.015C210.033 206.798 204.929 202.188 197.783 199.631C196.26 199.086 195.589 197.938 196.12 196.312C196.644 194.707 197.816 194.238 199.411 194.522C207.367 195.938 215.923 204.09 217.633 211.911C217.9 213.134 217.881 214.313 216.762 215.363Z" fill="#001F3F"/>
<path d="M169.185 210.246C168.396 209.36 168.529 208.532 168.896 207.668C169.65 205.891 170.913 204.485 172.204 203.102C172.926 202.328 173.744 201.689 174.832 202.455C175.967 203.254 176.352 204.468 175.711 205.615C174.731 207.365 173.548 209.021 172.021 210.373C171.121 211.168 170.194 211.08 169.185 210.246Z" fill="#001F3F"/>
<path d="M179.563 198.299C180.401 196.229 183.902 194.245 185.931 194.567C187.158 194.762 187.806 195.599 187.99 196.746C188.165 197.838 187.526 198.586 186.574 198.955C185.166 199.502 183.733 200.012 182.272 200.386C180.701 200.789 179.953 199.815 179.563 198.299Z" fill="#001F3F"/>
<path d="M166.205 218.799C166.456 217.131 166.465 215.537 167.874 214.344C167.807 219.187 167.42 224.024 169.045 228.945C166.491 228.489 166.354 226.98 166.679 225.44C167.15 223.207 167.115 221.069 166.205 218.799Z" fill="#001F3F"/>
<path d="M200.235 243.303C200.31 245.284 199.07 244.439 197.673 244.603C198.591 243.553 199.347 243.392 200.235 243.303Z" fill="#001F3F"/>
<path d="M168.261 177.28C166.748 175.486 165.322 173.796 163.902 172.1C162.96 170.975 162.765 169.795 163.943 168.752C165.176 167.661 166.424 167.953 167.432 169.117C169.748 171.792 172.024 174.501 174.29 177.218C175.167 178.27 175.354 179.384 174.209 180.396C173.052 181.421 171.87 181.275 170.838 180.239C169.95 179.346 169.176 178.339 168.261 177.28Z" fill="#001F3F"/>
<path d="M174.307 164.655C176.507 166.934 178.641 169.079 180.663 171.326C181.98 172.789 181.915 174.064 180.662 175.091C179.319 176.193 178.201 175.614 177.21 174.531C175.421 172.579 173.65 170.611 171.882 168.641C171.631 168.361 171.414 168.045 171.22 167.722C170.581 166.663 170.382 165.56 171.309 164.591C172.209 163.65 173.225 163.824 174.307 164.655Z" fill="#001F3F"/>
<path d="M162.541 160.583C161.552 159.508 160.618 158.567 160.021 157.359C159.536 156.377 159.676 155.522 160.508 154.812C161.384 154.065 162.297 154.202 163.063 154.929C164.203 156.012 165.301 157.147 166.341 158.326C167.257 159.364 167.684 160.578 166.468 161.661C165.284 162.715 164.148 162.299 163.17 161.219C163.001 161.032 162.816 160.86 162.541 160.583Z" fill="#001F3F"/>
<path d="M53.6342 175.887C51.1401 174.984 50.7807 173.931 52.1776 171.899C53.9098 169.379 56.1987 167.345 58.234 165.091C59.2335 163.984 60.5195 163.61 61.7346 164.805C62.8214 165.873 62.731 167.084 61.7407 168.192C59.7141 170.459 57.6667 172.707 55.6077 174.944C55.1278 175.466 54.5059 175.793 53.6342 175.887Z" fill="#001F3F"/>
<path d="M68.1688 162.406C67.0206 162.799 66.1279 162.667 65.585 161.657C65.108 160.77 65.3307 159.907 65.9572 159.187C67.2463 157.706 68.5378 156.223 69.9069 154.818C70.8522 153.847 71.9917 153.839 72.9338 154.817C73.8469 155.765 73.8889 156.91 72.967 157.887C71.4927 159.451 70.1313 161.142 68.1688 162.406Z" fill="#001F3F"/>
<path d="M121.011 244.047C121.95 246.045 121.937 247.849 120.648 249.532C118.775 251.977 115.541 252.392 113.299 250.496C111.02 248.569 110.75 245.01 112.72 242.855C114.754 240.63 118.1 240.689 120.282 242.999C120.539 243.272 120.728 243.609 121.011 244.047Z" fill="#001F3F"/>
<path d="M45.2656 226.043C43.3571 227.651 41.335 227.833 39.3168 226.787C37.3861 225.786 36.6387 224.02 36.7875 221.857C36.9415 219.617 38.168 217.839 40.0702 217.166C41.9052 216.516 44.2012 217.156 45.6062 218.709C46.9899 220.238 47.3369 222.725 46.3731 224.572C46.1138 225.069 45.7072 225.489 45.2656 226.043Z" fill="#001F3F"/>
<path d="M189.766 217.048C193.464 216.647 196.182 218.833 196.282 222.126C196.373 225.12 193.714 227.536 190.548 227.337C188.326 227.196 186.311 225.382 185.966 223.21C185.529 220.461 186.842 218.263 189.766 217.048Z" fill="#001F3F"/>
</svg>
